<svg width="11" height="22" viewBox="0 0 11 22" fill="none" xmlns="http://www.w3.org/2000/svg">
<path d="M0.343102 11.3297H2.67489V20.9292C2.67489 21.1188 2.82847 21.2724 3.018 21.2724H6.97164C7.16117 21.2724 7.31474 21.1188 7.31474 20.9292V11.3749H9.99533C10.1696 11.3749 10.3163 11.2441 10.3362 11.071L10.7433 7.53686C10.7545 7.43963 10.7237 7.34225 10.6586 7.26931C10.5935 7.1963 10.5003 7.15451 10.4025 7.15451H7.31488V4.93917C7.31488 4.27135 7.67445 3.93271 8.38371 3.93271C8.48479 3.93271 10.4025 3.93271 10.4025 3.93271C10.5921 3.93271 10.7456 3.77907 10.7456 3.58961V0.345641C10.7456 0.156112 10.5921 0.00253896 10.4025 0.00253896H7.62031C7.60068 0.00157827 7.55711 0 7.49288 0C7.01013 0 5.33215 0.0947648 4.00668 1.31415C2.53807 2.66543 2.74221 4.28336 2.791 4.56388V7.15444H0.343102C0.153573 7.15444 0 7.30801 0 7.49754V10.9865C0 11.176 0.153573 11.3297 0.343102 11.3297Z" fill="white"/>
</svg>
