<svg width="23" height="22" viewBox="0 0 23 22" fill="none" xmlns="http://www.w3.org/2000/svg">
<path d="M5.86509 6.82019H1.59463C1.4051 6.82019 1.25153 6.97383 1.25153 7.16329V20.8825C1.25153 21.072 1.4051 21.2256 1.59463 21.2256H5.86509C6.05462 21.2256 6.20819 21.072 6.20819 20.8825V7.16329C6.20819 6.97383 6.05462 6.82019 5.86509 6.82019Z" fill="white"/>
<path d="M3.73142 0C2.17758 0 0.913452 1.26275 0.913452 2.81488C0.913452 4.36769 2.17758 5.63093 3.73142 5.63093C5.28403 5.63093 6.54713 4.36763 6.54713 2.81488C6.54719 1.26275 5.28403 0 3.73142 0Z" fill="white"/>
<path d="M16.7274 6.47925C15.0122 6.47925 13.7443 7.21657 12.9753 8.05436V7.16333C12.9753 6.97386 12.8217 6.82022 12.6322 6.82022H8.54244C8.35291 6.82022 8.19934 6.97386 8.19934 7.16333V20.8825C8.19934 21.072 8.35291 21.2256 8.54244 21.2256H12.8036C12.9931 21.2256 13.1467 21.072 13.1467 20.8825V14.0947C13.1467 11.8074 13.768 10.9162 15.3624 10.9162C17.0989 10.9162 17.2369 12.3448 17.2369 14.2124V20.8826C17.2369 21.0721 17.3905 21.2257 17.58 21.2257H21.8427C22.0323 21.2257 22.1858 21.0721 22.1858 20.8826V13.3574C22.1858 9.95618 21.5373 6.47925 16.7274 6.47925Z" fill="white"/>
</svg>
