<svg width="91" height="140" viewBox="0 0 91 140" fill="none" xmlns="http://www.w3.org/2000/svg">
<g clip-path="url(#clip0_7_41)">
<path d="M87.5024 90.923C83.79 101.703 77.2895 111.503 68.5528 119.493C59.8161 127.482 49.1014 133.425 37.3184 136.815L87.5024 90.923Z" fill="#00818F" fill-opacity="0.2"/>
<path d="M91 70C91.001 73.2426 90.7536 76.4813 90.2595 79.6922L25.0249 139.339C21.5369 139.777 18.0206 139.998 14.5 140C12.3305 140 10.1793 139.923 8.06024 139.754L90.7307 64.092C90.9159 66.0464 91 68.0148 91 70Z" fill="#00818F" fill-opacity="0.2"/>
<path d="M89.5541 56.4774L-0.278264 138.677C-4.6508 137.901 -8.93864 136.768 -13.0905 135.292L85.8378 44.723C87.4638 48.5298 88.7078 52.4642 89.5541 56.4774Z" fill="#00818F" fill-opacity="0.2"/>
<path d="M82.9293 38.6918L-19.6817 132.632C-23.2653 130.978 -26.7051 129.075 -29.971 126.939L76.6746 29.26C79.0251 32.2499 81.1163 35.4035 82.9293 38.6918Z" fill="#00818F" fill-opacity="0.2"/>
<path d="M72.487 24.3852L-35.2831 123.108C-38.2445 120.785 -41.0067 118.257 -43.5451 115.548L64.3505 16.94C67.2615 19.2328 69.9812 21.7215 72.487 24.3852Z" fill="#00818F" fill-opacity="0.2"/>
<path d="M59.023 13.1082L-47.7251 110.692C-50.0585 107.704 -52.1383 104.557 -53.9461 101.277L48.7169 7.38501C52.3101 9.04397 55.7559 10.9575 59.023 13.1082Z" fill="#00818F" fill-opacity="0.2"/>
<path d="M42.1242 4.7236L-56.8546 95.2462C-58.4675 91.4471 -59.7056 87.5236 -60.5541 83.5226L29.2783 1.323C33.6642 2.09746 37.9639 3.23569 42.1242 4.7236Z" fill="#00818F" fill-opacity="0.2"/>
<path d="M20.9566 0.246402L-61.7307 75.8926C-61.9158 73.9536 -62 71.9852 -62 70C-61.9976 66.7785 -61.7558 63.5609 -61.2763 60.3694L3.90781 0.676202C7.41702 0.225268 10.9564 -0.000682659 14.5 1.54922e-06C16.6695 1.54922e-06 18.8207 0.0770015 20.9566 0.246402Z" fill="#00818F" fill-opacity="0.2"/>
</g>
<defs>
<clipPath id="clip0_7_41">
<rect width="153" height="140" fill="white" transform="translate(-62)"/>
</clipPath>
</defs>
</svg>
