<svg width="100" height="100" viewBox="0 0 100 100" fill="none" xmlns="http://www.w3.org/2000/svg">
<path d="M1.889 15.828C2.93227 15.828 3.778 14.9823 3.778 13.939C3.778 12.8957 2.93227 12.05 1.889 12.05C0.845734 12.05 0 12.8957 0 13.939C0 14.9823 0.845734 15.828 1.889 15.828Z" fill="#FF5722" fill-opacity="0.2"/>
<path d="M11.511 15.828C12.5543 15.828 13.4 14.9823 13.4 13.939C13.4 12.8957 12.5543 12.05 11.511 12.05C10.4677 12.05 9.62201 12.8957 9.62201 13.939C9.62201 14.9823 10.4677 15.828 11.511 15.828Z" fill="#FF5722" fill-opacity="0.2"/>
<path d="M21.133 15.828C22.1763 15.828 23.022 14.9823 23.022 13.939C23.022 12.8957 22.1763 12.05 21.133 12.05C20.0897 12.05 19.244 12.8957 19.244 13.939C19.244 14.9823 20.0897 15.828 21.133 15.828Z" fill="#FF5722" fill-opacity="0.2"/>
<path d="M30.756 15.828C31.7993 15.828 32.645 14.9823 32.645 13.939C32.645 12.8957 31.7993 12.05 30.756 12.05C29.7127 12.05 28.867 12.8957 28.867 13.939C28.867 14.9823 29.7127 15.828 30.756 15.828Z" fill="#FF5722" fill-opacity="0.2"/>
<path d="M40.378 15.828C41.4213 15.828 42.267 14.9823 42.267 13.939C42.267 12.8957 41.4213 12.05 40.378 12.05C39.3347 12.05 38.489 12.8957 38.489 13.939C38.489 14.9823 39.3347 15.828 40.378 15.828Z" fill="#FF5722" fill-opacity="0.2"/>
<path d="M50 15.828C51.0433 15.828 51.889 14.9823 51.889 13.939C51.889 12.8957 51.0433 12.05 50 12.05C48.9567 12.05 48.111 12.8957 48.111 13.939C48.111 14.9823 48.9567 15.828 50 15.828Z" fill="#FF5722" fill-opacity="0.2"/>
<path d="M59.622 15.828C60.6653 15.828 61.511 14.9823 61.511 13.939C61.511 12.8957 60.6653 12.05 59.622 12.05C58.5787 12.05 57.733 12.8957 57.733 13.939C57.733 14.9823 58.5787 15.828 59.622 15.828Z" fill="#FF5722" fill-opacity="0.2"/>
<path d="M69.244 15.828C70.2873 15.828 71.133 14.9823 71.133 13.939C71.133 12.8957 70.2873 12.05 69.244 12.05C68.2007 12.05 67.355 12.8957 67.355 13.939C67.355 14.9823 68.2007 15.828 69.244 15.828Z" fill="#FF5722" fill-opacity="0.2"/>
<path d="M78.867 15.828C79.9103 15.828 80.756 14.9823 80.756 13.939C80.756 12.8957 79.9103 12.05 78.867 12.05C77.8237 12.05 76.978 12.8957 76.978 13.939C76.978 14.9823 77.8237 15.828 78.867 15.828Z" fill="#FF5722" fill-opacity="0.2"/>
<path d="M88.489 15.828C89.5323 15.828 90.378 14.9823 90.378 13.939C90.378 12.8957 89.5323 12.05 88.489 12.05C87.4457 12.05 86.6 12.8957 86.6 13.939C86.6 14.9823 87.4457 15.828 88.489 15.828Z" fill="#FF5722" fill-opacity="0.2"/>
<path d="M98.111 15.828C99.1543 15.828 100 14.9823 100 13.939C100 12.8957 99.1543 12.05 98.111 12.05C97.0677 12.05 96.222 12.8957 96.222 13.939C96.222 14.9823 97.0677 15.828 98.111 15.828Z" fill="#FF5722" fill-opacity="0.2"/>
<path d="M1.889 24.843C2.93227 24.843 3.778 23.9973 3.778 22.954C3.778 21.9107 2.93227 21.065 1.889 21.065C0.845734 21.065 0 21.9107 0 22.954C0 23.9973 0.845734 24.843 1.889 24.843Z" fill="#FF5722" fill-opacity="0.2"/>
<path d="M11.511 24.843C12.5543 24.843 13.4 23.9973 13.4 22.954C13.4 21.9107 12.5543 21.065 11.511 21.065C10.4677 21.065 9.62201 21.9107 9.62201 22.954C9.62201 23.9973 10.4677 24.843 11.511 24.843Z" fill="#FF5722" fill-opacity="0.2"/>
<path d="M21.133 24.843C22.1763 24.843 23.022 23.9973 23.022 22.954C23.022 21.9107 22.1763 21.065 21.133 21.065C20.0897 21.065 19.244 21.9107 19.244 22.954C19.244 23.9973 20.0897 24.843 21.133 24.843Z" fill="#FF5722" fill-opacity="0.2"/>
<path d="M30.756 24.843C31.7993 24.843 32.645 23.9973 32.645 22.954C32.645 21.9107 31.7993 21.065 30.756 21.065C29.7127 21.065 28.867 21.9107 28.867 22.954C28.867 23.9973 29.7127 24.843 30.756 24.843Z" fill="#FF5722" fill-opacity="0.2"/>
<path d="M40.378 24.843C41.4213 24.843 42.267 23.9973 42.267 22.954C42.267 21.9107 41.4213 21.065 40.378 21.065C39.3347 21.065 38.489 21.9107 38.489 22.954C38.489 23.9973 39.3347 24.843 40.378 24.843Z" fill="#FF5722" fill-opacity="0.2"/>
<path d="M50 24.843C51.0433 24.843 51.889 23.9973 51.889 22.954C51.889 21.9107 51.0433 21.065 50 21.065C48.9567 21.065 48.111 21.9107 48.111 22.954C48.111 23.9973 48.9567 24.843 50 24.843Z" fill="#FF5722" fill-opacity="0.2"/>
<path d="M59.622 24.843C60.6653 24.843 61.511 23.9973 61.511 22.954C61.511 21.9107 60.6653 21.065 59.622 21.065C58.5787 21.065 57.733 21.9107 57.733 22.954C57.733 23.9973 58.5787 24.843 59.622 24.843Z" fill="#FF5722" fill-opacity="0.2"/>
<path d="M69.244 24.843C70.2873 24.843 71.133 23.9973 71.133 22.954C71.133 21.9107 70.2873 21.065 69.244 21.065C68.2007 21.065 67.355 21.9107 67.355 22.954C67.355 23.9973 68.2007 24.843 69.244 24.843Z" fill="#FF5722" fill-opacity="0.2"/>
<path d="M78.867 24.843C79.9103 24.843 80.756 23.9973 80.756 22.954C80.756 21.9107 79.9103 21.065 78.867 21.065C77.8237 21.065 76.978 21.9107 76.978 22.954C76.978 23.9973 77.8237 24.843 78.867 24.843Z" fill="#FF5722" fill-opacity="0.2"/>
<path d="M88.489 24.843C89.5323 24.843 90.378 23.9973 90.378 22.954C90.378 21.9107 89.5323 21.065 88.489 21.065C87.4457 21.065 86.6 21.9107 86.6 22.954C86.6 23.9973 87.4457 24.843 88.489 24.843Z" fill="#FF5722" fill-opacity="0.2"/>
<path d="M98.111 24.843C99.1543 24.843 100 23.9973 100 22.954C100 21.9107 99.1543 21.065 98.111 21.065C97.0677 21.065 96.222 21.9107 96.222 22.954C96.222 23.9973 97.0677 24.843 98.111 24.843Z" fill="#FF5722" fill-opacity="0.2"/>
<path d="M1.889 33.858C2.93227 33.858 3.778 33.0123 3.778 31.969C3.778 30.9257 2.93227 30.08 1.889 30.08C0.845734 30.08 0 30.9257 0 31.969C0 33.0123 0.845734 33.858 1.889 33.858Z" fill="#FF5722" fill-opacity="0.2"/>
<path d="M11.511 33.858C12.5543 33.858 13.4 33.0123 13.4 31.969C13.4 30.9257 12.5543 30.08 11.511 30.08C10.4677 30.08 9.62201 30.9257 9.62201 31.969C9.62201 33.0123 10.4677 33.858 11.511 33.858Z" fill="#FF5722" fill-opacity="0.2"/>
<path d="M21.133 33.858C22.1763 33.858 23.022 33.0123 23.022 31.969C23.022 30.9257 22.1763 30.08 21.133 30.08C20.0897 30.08 19.244 30.9257 19.244 31.969C19.244 33.0123 20.0897 33.858 21.133 33.858Z" fill="#FF5722" fill-opacity="0.2"/>
<path d="M30.756 33.858C31.7993 33.858 32.645 33.0123 32.645 31.969C32.645 30.9257 31.7993 30.08 30.756 30.08C29.7127 30.08 28.867 30.9257 28.867 31.969C28.867 33.0123 29.7127 33.858 30.756 33.858Z" fill="#FF5722" fill-opacity="0.2"/>
<path d="M40.378 33.858C41.4213 33.858 42.267 33.0123 42.267 31.969C42.267 30.9257 41.4213 30.08 40.378 30.08C39.3347 30.08 38.489 30.9257 38.489 31.969C38.489 33.0123 39.3347 33.858 40.378 33.858Z" fill="#FF5722" fill-opacity="0.2"/>
<path d="M50 33.858C51.0433 33.858 51.889 33.0123 51.889 31.969C51.889 30.9257 51.0433 30.08 50 30.08C48.9567 30.08 48.111 30.9257 48.111 31.969C48.111 33.0123 48.9567 33.858 50 33.858Z" fill="#FF5722" fill-opacity="0.2"/>
<path d="M59.622 33.858C60.6653 33.858 61.511 33.0123 61.511 31.969C61.511 30.9257 60.6653 30.08 59.622 30.08C58.5787 30.08 57.733 30.9257 57.733 31.969C57.733 33.0123 58.5787 33.858 59.622 33.858Z" fill="#FF5722" fill-opacity="0.2"/>
<path d="M69.244 33.858C70.2873 33.858 71.133 33.0123 71.133 31.969C71.133 30.9257 70.2873 30.08 69.244 30.08C68.2007 30.08 67.355 30.9257 67.355 31.969C67.355 33.0123 68.2007 33.858 69.244 33.858Z" fill="#FF5722" fill-opacity="0.2"/>
<path d="M78.867 33.858C79.9103 33.858 80.756 33.0123 80.756 31.969C80.756 30.9257 79.9103 30.08 78.867 30.08C77.8237 30.08 76.978 30.9257 76.978 31.969C76.978 33.0123 77.8237 33.858 78.867 33.858Z" fill="#FF5722" fill-opacity="0.2"/>
<path d="M88.489 33.858C89.5323 33.858 90.378 33.0123 90.378 31.969C90.378 30.9257 89.5323 30.08 88.489 30.08C87.4457 30.08 86.6 30.9257 86.6 31.969C86.6 33.0123 87.4457 33.858 88.489 33.858Z" fill="#FF5722" fill-opacity="0.2"/>
<path d="M98.111 33.858C99.1543 33.858 100 33.0123 100 31.969C100 30.9257 99.1543 30.08 98.111 30.08C97.0677 30.08 96.222 30.9257 96.222 31.969C96.222 33.0123 97.0677 33.858 98.111 33.858Z" fill="#FF5722" fill-opacity="0.2"/>
<path d="M1.889 42.874C2.93227 42.874 3.778 42.0283 3.778 40.985C3.778 39.9417 2.93227 39.096 1.889 39.096C0.845734 39.096 0 39.9417 0 40.985C0 42.0283 0.845734 42.874 1.889 42.874Z" fill="#FF5722" fill-opacity="0.2"/>
<path d="M11.511 42.874C12.5543 42.874 13.4 42.0283 13.4 40.985C13.4 39.9417 12.5543 39.096 11.511 39.096C10.4677 39.096 9.62201 39.9417 9.62201 40.985C9.62201 42.0283 10.4677 42.874 11.511 42.874Z" fill="#FF5722" fill-opacity="0.2"/>
<path d="M21.133 42.874C22.1763 42.874 23.022 42.0283 23.022 40.985C23.022 39.9417 22.1763 39.096 21.133 39.096C20.0897 39.096 19.244 39.9417 19.244 40.985C19.244 42.0283 20.0897 42.874 21.133 42.874Z" fill="#FF5722" fill-opacity="0.2"/>
<path d="M30.756 42.874C31.7993 42.874 32.645 42.0283 32.645 40.985C32.645 39.9417 31.7993 39.096 30.756 39.096C29.7127 39.096 28.867 39.9417 28.867 40.985C28.867 42.0283 29.7127 42.874 30.756 42.874Z" fill="#FF5722" fill-opacity="0.2"/>
<path d="M40.378 42.874C41.4213 42.874 42.267 42.0283 42.267 40.985C42.267 39.9417 41.4213 39.096 40.378 39.096C39.3347 39.096 38.489 39.9417 38.489 40.985C38.489 42.0283 39.3347 42.874 40.378 42.874Z" fill="#FF5722" fill-opacity="0.2"/>
<path d="M50 42.874C51.0433 42.874 51.889 42.0283 51.889 40.985C51.889 39.9417 51.0433 39.096 50 39.096C48.9567 39.096 48.111 39.9417 48.111 40.985C48.111 42.0283 48.9567 42.874 50 42.874Z" fill="#FF5722" fill-opacity="0.2"/>
<path d="M59.622 42.874C60.6653 42.874 61.511 42.0283 61.511 40.985C61.511 39.9417 60.6653 39.096 59.622 39.096C58.5787 39.096 57.733 39.9417 57.733 40.985C57.733 42.0283 58.5787 42.874 59.622 42.874Z" fill="#FF5722" fill-opacity="0.2"/>
<path d="M69.244 42.874C70.2873 42.874 71.133 42.0283 71.133 40.985C71.133 39.9417 70.2873 39.096 69.244 39.096C68.2007 39.096 67.355 39.9417 67.355 40.985C67.355 42.0283 68.2007 42.874 69.244 42.874Z" fill="#FF5722" fill-opacity="0.2"/>
<path d="M78.867 42.874C79.9103 42.874 80.756 42.0283 80.756 40.985C80.756 39.9417 79.9103 39.096 78.867 39.096C77.8237 39.096 76.978 39.9417 76.978 40.985C76.978 42.0283 77.8237 42.874 78.867 42.874Z" fill="#FF5722" fill-opacity="0.2"/>
<path d="M88.489 42.874C89.5323 42.874 90.378 42.0283 90.378 40.985C90.378 39.9417 89.5323 39.096 88.489 39.096C87.4457 39.096 86.6 39.9417 86.6 40.985C86.6 42.0283 87.4457 42.874 88.489 42.874Z" fill="#FF5722" fill-opacity="0.2"/>
<path d="M98.111 42.874C99.1543 42.874 100 42.0283 100 40.985C100 39.9417 99.1543 39.096 98.111 39.096C97.0677 39.096 96.222 39.9417 96.222 40.985C96.222 42.0283 97.0677 42.874 98.111 42.874Z" fill="#FF5722" fill-opacity="0.2"/>
<path d="M1.889 51.889C2.93227 51.889 3.778 51.0433 3.778 50C3.778 48.9567 2.93227 48.111 1.889 48.111C0.845734 48.111 0 48.9567 0 50C0 51.0433 0.845734 51.889 1.889 51.889Z" fill="#FF5722" fill-opacity="0.2"/>
<path d="M11.511 51.889C12.5543 51.889 13.4 51.0433 13.4 50C13.4 48.9567 12.5543 48.111 11.511 48.111C10.4677 48.111 9.62201 48.9567 9.62201 50C9.62201 51.0433 10.4677 51.889 11.511 51.889Z" fill="#FF5722" fill-opacity="0.2"/>
<path d="M21.133 51.889C22.1763 51.889 23.022 51.0433 23.022 50C23.022 48.9567 22.1763 48.111 21.133 48.111C20.0897 48.111 19.244 48.9567 19.244 50C19.244 51.0433 20.0897 51.889 21.133 51.889Z" fill="#FF5722" fill-opacity="0.2"/>
<path d="M30.756 51.889C31.7993 51.889 32.645 51.0433 32.645 50C32.645 48.9567 31.7993 48.111 30.756 48.111C29.7127 48.111 28.867 48.9567 28.867 50C28.867 51.0433 29.7127 51.889 30.756 51.889Z" fill="#FF5722" fill-opacity="0.2"/>
<path d="M40.378 51.889C41.4213 51.889 42.267 51.0433 42.267 50C42.267 48.9567 41.4213 48.111 40.378 48.111C39.3347 48.111 38.489 48.9567 38.489 50C38.489 51.0433 39.3347 51.889 40.378 51.889Z" fill="#FF5722" fill-opacity="0.2"/>
<path d="M50 51.889C51.0433 51.889 51.889 51.0433 51.889 50C51.889 48.9567 51.0433 48.111 50 48.111C48.9567 48.111 48.111 48.9567 48.111 50C48.111 51.0433 48.9567 51.889 50 51.889Z" fill="#FF5722" fill-opacity="0.2"/>
<path d="M59.622 51.889C60.6653 51.889 61.511 51.0433 61.511 50C61.511 48.9567 60.6653 48.111 59.622 48.111C58.5787 48.111 57.733 48.9567 57.733 50C57.733 51.0433 58.5787 51.889 59.622 51.889Z" fill="#FF5722" fill-opacity="0.2"/>
<path d="M69.244 51.889C70.2873 51.889 71.133 51.0433 71.133 50C71.133 48.9567 70.2873 48.111 69.244 48.111C68.2007 48.111 67.355 48.9567 67.355 50C67.355 51.0433 68.2007 51.889 69.244 51.889Z" fill="#FF5722" fill-opacity="0.2"/>
<path d="M78.867 51.889C79.9103 51.889 80.756 51.0433 80.756 50C80.756 48.9567 79.9103 48.111 78.867 48.111C77.8237 48.111 76.978 48.9567 76.978 50C76.978 51.0433 77.8237 51.889 78.867 51.889Z" fill="#FF5722" fill-opacity="0.2"/>
<path d="M88.489 51.889C89.5323 51.889 90.378 51.0433 90.378 50C90.378 48.9567 89.5323 48.111 88.489 48.111C87.4457 48.111 86.6 48.9567 86.6 50C86.6 51.0433 87.4457 51.889 88.489 51.889Z" fill="#FF5722" fill-opacity="0.2"/>
<path d="M98.111 51.889C99.1543 51.889 100 51.0433 100 50C100 48.9567 99.1543 48.111 98.111 48.111C97.0677 48.111 96.222 48.9567 96.222 50C96.222 51.0433 97.0677 51.889 98.111 51.889Z" fill="#FF5722" fill-opacity="0.2"/>
<path d="M1.889 60.904C2.93227 60.904 3.778 60.0583 3.778 59.015C3.778 57.9717 2.93227 57.126 1.889 57.126C0.845734 57.126 0 57.9717 0 59.015C0 60.0583 0.845734 60.904 1.889 60.904Z" fill="#FF5722" fill-opacity="0.2"/>
<path d="M11.511 60.904C12.5543 60.904 13.4 60.0583 13.4 59.015C13.4 57.9717 12.5543 57.126 11.511 57.126C10.4677 57.126 9.62201 57.9717 9.62201 59.015C9.62201 60.0583 10.4677 60.904 11.511 60.904Z" fill="#FF5722" fill-opacity="0.2"/>
<path d="M21.133 60.904C22.1763 60.904 23.022 60.0583 23.022 59.015C23.022 57.9717 22.1763 57.126 21.133 57.126C20.0897 57.126 19.244 57.9717 19.244 59.015C19.244 60.0583 20.0897 60.904 21.133 60.904Z" fill="#FF5722" fill-opacity="0.2"/>
<path d="M30.756 60.904C31.7993 60.904 32.645 60.0583 32.645 59.015C32.645 57.9717 31.7993 57.126 30.756 57.126C29.7127 57.126 28.867 57.9717 28.867 59.015C28.867 60.0583 29.7127 60.904 30.756 60.904Z" fill="#FF5722" fill-opacity="0.2"/>
<path d="M40.378 60.904C41.4213 60.904 42.267 60.0583 42.267 59.015C42.267 57.9717 41.4213 57.126 40.378 57.126C39.3347 57.126 38.489 57.9717 38.489 59.015C38.489 60.0583 39.3347 60.904 40.378 60.904Z" fill="#FF5722" fill-opacity="0.2"/>
<path d="M50 60.904C51.0433 60.904 51.889 60.0583 51.889 59.015C51.889 57.9717 51.0433 57.126 50 57.126C48.9567 57.126 48.111 57.9717 48.111 59.015C48.111 60.0583 48.9567 60.904 50 60.904Z" fill="#FF5722" fill-opacity="0.2"/>
<path d="M59.622 60.904C60.6653 60.904 61.511 60.0583 61.511 59.015C61.511 57.9717 60.6653 57.126 59.622 57.126C58.5787 57.126 57.733 57.9717 57.733 59.015C57.733 60.0583 58.5787 60.904 59.622 60.904Z" fill="#FF5722" fill-opacity="0.2"/>
<path d="M69.244 60.904C70.2873 60.904 71.133 60.0583 71.133 59.015C71.133 57.9717 70.2873 57.126 69.244 57.126C68.2007 57.126 67.355 57.9717 67.355 59.015C67.355 60.0583 68.2007 60.904 69.244 60.904Z" fill="#FF5722" fill-opacity="0.2"/>
<path d="M78.867 60.904C79.9103 60.904 80.756 60.0583 80.756 59.015C80.756 57.9717 79.9103 57.126 78.867 57.126C77.8237 57.126 76.978 57.9717 76.978 59.015C76.978 60.0583 77.8237 60.904 78.867 60.904Z" fill="#FF5722" fill-opacity="0.2"/>
<path d="M88.489 60.904C89.5323 60.904 90.378 60.0583 90.378 59.015C90.378 57.9717 89.5323 57.126 88.489 57.126C87.4457 57.126 86.6 57.9717 86.6 59.015C86.6 60.0583 87.4457 60.904 88.489 60.904Z" fill="#FF5722" fill-opacity="0.2"/>
<path d="M98.111 60.904C99.1543 60.904 100 60.0583 100 59.015C100 57.9717 99.1543 57.126 98.111 57.126C97.0677 57.126 96.222 57.9717 96.222 59.015C96.222 60.0583 97.0677 60.904 98.111 60.904Z" fill="#FF5722" fill-opacity="0.2"/>
<path d="M1.889 69.92C2.93227 69.92 3.778 69.0743 3.778 68.031C3.778 66.9877 2.93227 66.142 1.889 66.142C0.845734 66.142 0 66.9877 0 68.031C0 69.0743 0.845734 69.92 1.889 69.92Z" fill="#FF5722" fill-opacity="0.2"/>
<path d="M11.511 69.92C12.5543 69.92 13.4 69.0743 13.4 68.031C13.4 66.9877 12.5543 66.142 11.511 66.142C10.4677 66.142 9.62201 66.9877 9.62201 68.031C9.62201 69.0743 10.4677 69.92 11.511 69.92Z" fill="#FF5722" fill-opacity="0.2"/>
<path d="M21.133 69.92C22.1763 69.92 23.022 69.0743 23.022 68.031C23.022 66.9877 22.1763 66.142 21.133 66.142C20.0897 66.142 19.244 66.9877 19.244 68.031C19.244 69.0743 20.0897 69.92 21.133 69.92Z" fill="#FF5722" fill-opacity="0.2"/>
<path d="M30.756 69.92C31.7993 69.92 32.645 69.0743 32.645 68.031C32.645 66.9877 31.7993 66.142 30.756 66.142C29.7127 66.142 28.867 66.9877 28.867 68.031C28.867 69.0743 29.7127 69.92 30.756 69.92Z" fill="#FF5722" fill-opacity="0.2"/>
<path d="M40.378 69.92C41.4213 69.92 42.267 69.0743 42.267 68.031C42.267 66.9877 41.4213 66.142 40.378 66.142C39.3347 66.142 38.489 66.9877 38.489 68.031C38.489 69.0743 39.3347 69.92 40.378 69.92Z" fill="#FF5722" fill-opacity="0.2"/>
<path d="M50 69.92C51.0433 69.92 51.889 69.0743 51.889 68.031C51.889 66.9877 51.0433 66.142 50 66.142C48.9567 66.142 48.111 66.9877 48.111 68.031C48.111 69.0743 48.9567 69.92 50 69.92Z" fill="#FF5722" fill-opacity="0.2"/>
<path d="M59.622 69.92C60.6653 69.92 61.511 69.0743 61.511 68.031C61.511 66.9877 60.6653 66.142 59.622 66.142C58.5787 66.142 57.733 66.9877 57.733 68.031C57.733 69.0743 58.5787 69.92 59.622 69.92Z" fill="#FF5722" fill-opacity="0.2"/>
<path d="M69.244 69.92C70.2873 69.92 71.133 69.0743 71.133 68.031C71.133 66.9877 70.2873 66.142 69.244 66.142C68.2007 66.142 67.355 66.9877 67.355 68.031C67.355 69.0743 68.2007 69.92 69.244 69.92Z" fill="#FF5722" fill-opacity="0.2"/>
<path d="M78.867 69.92C79.9103 69.92 80.756 69.0743 80.756 68.031C80.756 66.9877 79.9103 66.142 78.867 66.142C77.8237 66.142 76.978 66.9877 76.978 68.031C76.978 69.0743 77.8237 69.92 78.867 69.92Z" fill="#FF5722" fill-opacity="0.2"/>
<path d="M88.489 69.92C89.5323 69.92 90.378 69.0743 90.378 68.031C90.378 66.9877 89.5323 66.142 88.489 66.142C87.4457 66.142 86.6 66.9877 86.6 68.031C86.6 69.0743 87.4457 69.92 88.489 69.92Z" fill="#FF5722" fill-opacity="0.2"/>
<path d="M98.111 69.92C99.1543 69.92 100 69.0743 100 68.031C100 66.9877 99.1543 66.142 98.111 66.142C97.0677 66.142 96.222 66.9877 96.222 68.031C96.222 69.0743 97.0677 69.92 98.111 69.92Z" fill="#FF5722" fill-opacity="0.2"/>
<path d="M1.889 78.935C2.93227 78.935 3.778 78.0892 3.778 77.046C3.778 76.0027 2.93227 75.157 1.889 75.157C0.845734 75.157 0 76.0027 0 77.046C0 78.0892 0.845734 78.935 1.889 78.935Z" fill="#FF5722" fill-opacity="0.2"/>
<path d="M11.511 78.935C12.5543 78.935 13.4 78.0892 13.4 77.046C13.4 76.0027 12.5543 75.157 11.511 75.157C10.4677 75.157 9.62201 76.0027 9.62201 77.046C9.62201 78.0892 10.4677 78.935 11.511 78.935Z" fill="#FF5722" fill-opacity="0.2"/>
<path d="M21.133 78.935C22.1763 78.935 23.022 78.0892 23.022 77.046C23.022 76.0027 22.1763 75.157 21.133 75.157C20.0897 75.157 19.244 76.0027 19.244 77.046C19.244 78.0892 20.0897 78.935 21.133 78.935Z" fill="#FF5722" fill-opacity="0.2"/>
<path d="M30.756 78.935C31.7993 78.935 32.645 78.0892 32.645 77.046C32.645 76.0027 31.7993 75.157 30.756 75.157C29.7127 75.157 28.867 76.0027 28.867 77.046C28.867 78.0892 29.7127 78.935 30.756 78.935Z" fill="#FF5722" fill-opacity="0.2"/>
<path d="M40.378 78.935C41.4213 78.935 42.267 78.0892 42.267 77.046C42.267 76.0027 41.4213 75.157 40.378 75.157C39.3347 75.157 38.489 76.0027 38.489 77.046C38.489 78.0892 39.3347 78.935 40.378 78.935Z" fill="#FF5722" fill-opacity="0.2"/>
<path d="M50 78.935C51.0433 78.935 51.889 78.0892 51.889 77.046C51.889 76.0027 51.0433 75.157 50 75.157C48.9567 75.157 48.111 76.0027 48.111 77.046C48.111 78.0892 48.9567 78.935 50 78.935Z" fill="#FF5722" fill-opacity="0.2"/>
<path d="M59.622 78.935C60.6653 78.935 61.511 78.0892 61.511 77.046C61.511 76.0027 60.6653 75.157 59.622 75.157C58.5787 75.157 57.733 76.0027 57.733 77.046C57.733 78.0892 58.5787 78.935 59.622 78.935Z" fill="#FF5722" fill-opacity="0.2"/>
<path d="M69.244 78.935C70.2873 78.935 71.133 78.0892 71.133 77.046C71.133 76.0027 70.2873 75.157 69.244 75.157C68.2007 75.157 67.355 76.0027 67.355 77.046C67.355 78.0892 68.2007 78.935 69.244 78.935Z" fill="#FF5722" fill-opacity="0.2"/>
<path d="M78.867 78.935C79.9103 78.935 80.756 78.0892 80.756 77.046C80.756 76.0027 79.9103 75.157 78.867 75.157C77.8237 75.157 76.978 76.0027 76.978 77.046C76.978 78.0892 77.8237 78.935 78.867 78.935Z" fill="#FF5722" fill-opacity="0.2"/>
<path d="M88.489 78.935C89.5323 78.935 90.378 78.0892 90.378 77.046C90.378 76.0027 89.5323 75.157 88.489 75.157C87.4457 75.157 86.6 76.0027 86.6 77.046C86.6 78.0892 87.4457 78.935 88.489 78.935Z" fill="#FF5722" fill-opacity="0.2"/>
<path d="M98.111 78.935C99.1543 78.935 100 78.0892 100 77.046C100 76.0027 99.1543 75.157 98.111 75.157C97.0677 75.157 96.222 76.0027 96.222 77.046C96.222 78.0892 97.0677 78.935 98.111 78.935Z" fill="#FF5722" fill-opacity="0.2"/>
<path d="M1.889 87.95C2.93227 87.95 3.778 87.1043 3.778 86.061C3.778 85.0177 2.93227 84.172 1.889 84.172C0.845734 84.172 0 85.0177 0 86.061C0 87.1043 0.845734 87.95 1.889 87.95Z" fill="#FF5722" fill-opacity="0.2"/>
<path d="M11.511 87.95C12.5543 87.95 13.4 87.1043 13.4 86.061C13.4 85.0177 12.5543 84.172 11.511 84.172C10.4677 84.172 9.62201 85.0177 9.62201 86.061C9.62201 87.1043 10.4677 87.95 11.511 87.95Z" fill="#FF5722" fill-opacity="0.2"/>
<path d="M21.133 87.95C22.1763 87.95 23.022 87.1043 23.022 86.061C23.022 85.0177 22.1763 84.172 21.133 84.172C20.0897 84.172 19.244 85.0177 19.244 86.061C19.244 87.1043 20.0897 87.95 21.133 87.95Z" fill="#FF5722" fill-opacity="0.2"/>
<path d="M30.756 87.95C31.7993 87.95 32.645 87.1043 32.645 86.061C32.645 85.0177 31.7993 84.172 30.756 84.172C29.7127 84.172 28.867 85.0177 28.867 86.061C28.867 87.1043 29.7127 87.95 30.756 87.95Z" fill="#FF5722" fill-opacity="0.2"/>
<path d="M40.378 87.95C41.4213 87.95 42.267 87.1043 42.267 86.061C42.267 85.0177 41.4213 84.172 40.378 84.172C39.3347 84.172 38.489 85.0177 38.489 86.061C38.489 87.1043 39.3347 87.95 40.378 87.95Z" fill="#FF5722" fill-opacity="0.2"/>
<path d="M50 87.95C51.0433 87.95 51.889 87.1043 51.889 86.061C51.889 85.0177 51.0433 84.172 50 84.172C48.9567 84.172 48.111 85.0177 48.111 86.061C48.111 87.1043 48.9567 87.95 50 87.95Z" fill="#FF5722" fill-opacity="0.2"/>
<path d="M59.622 87.95C60.6653 87.95 61.511 87.1043 61.511 86.061C61.511 85.0177 60.6653 84.172 59.622 84.172C58.5787 84.172 57.733 85.0177 57.733 86.061C57.733 87.1043 58.5787 87.95 59.622 87.95Z" fill="#FF5722" fill-opacity="0.2"/>
<path d="M69.244 87.95C70.2873 87.95 71.133 87.1043 71.133 86.061C71.133 85.0177 70.2873 84.172 69.244 84.172C68.2007 84.172 67.355 85.0177 67.355 86.061C67.355 87.1043 68.2007 87.95 69.244 87.95Z" fill="#FF5722" fill-opacity="0.2"/>
<path d="M78.867 87.95C79.9103 87.95 80.756 87.1043 80.756 86.061C80.756 85.0177 79.9103 84.172 78.867 84.172C77.8237 84.172 76.978 85.0177 76.978 86.061C76.978 87.1043 77.8237 87.95 78.867 87.95Z" fill="#FF5722" fill-opacity="0.2"/>
<path d="M88.489 87.95C89.5323 87.95 90.378 87.1043 90.378 86.061C90.378 85.0177 89.5323 84.172 88.489 84.172C87.4457 84.172 86.6 85.0177 86.6 86.061C86.6 87.1043 87.4457 87.95 88.489 87.95Z" fill="#FF5722" fill-opacity="0.2"/>
<path d="M98.111 87.95C99.1543 87.95 100 87.1043 100 86.061C100 85.0177 99.1543 84.172 98.111 84.172C97.0677 84.172 96.222 85.0177 96.222 86.061C96.222 87.1043 97.0677 87.95 98.111 87.95Z" fill="#FF5722" fill-opacity="0.2"/>
</svg>
