<svg width="134" height="148" viewBox="0 0 134 148" fill="none" xmlns="http://www.w3.org/2000/svg">
<g clip-path="url(#clip0_7_51)">
<path d="M14.0913 0L0 13.6308V0H14.0913Z" fill="#00818F" fill-opacity="0.2"/>
<path d="M38.5713 0L0 37.3108V22.0076L22.7511 0H38.5713Z" fill="#00818F" fill-opacity="0.2"/>
<path d="M63.0207 0L0 60.9612V45.658L47.2005 0H63.0207Z" fill="#00818F" fill-opacity="0.2"/>
<path d="M87.5007 0L0 84.6412V69.338L71.6805 0H87.5007Z" fill="#00818F" fill-opacity="0.2"/>
<path d="M111.981 0L0 108.321V93.018L96.1605 0H111.981Z" fill="#00818F" fill-opacity="0.2"/>
<path d="M136.43 0L0 131.972V116.668L120.61 0H136.43Z" fill="#00818F" fill-opacity="0.2"/>
<path d="M153 0V7.6516L7.9101 148H0V140.348L145.09 0H153Z" fill="#00818F" fill-opacity="0.2"/>
<path d="M153 16.0284V31.3316L32.3901 148H16.5699L153 16.0284Z" fill="#00818F" fill-opacity="0.2"/>
<path d="M153 39.6788V54.982L56.8395 148H41.0193L153 39.6788Z" fill="#00818F" fill-opacity="0.2"/>
<path d="M153 63.3588V78.662L81.3195 148H65.4993L153 63.3588Z" fill="#00818F" fill-opacity="0.2"/>
<path d="M153 87.0388V102.342L105.8 148H89.9793L153 87.0388Z" fill="#00818F" fill-opacity="0.2"/>
<path d="M153 110.689V125.992L130.249 148H114.429L153 110.689Z" fill="#00818F" fill-opacity="0.2"/>
</g>
<defs>
<clipPath id="clip0_7_51">
<rect width="153" height="148" fill="white"/>
</clipPath>
</defs>
</svg>
