<svg width="14" height="17" viewBox="0 0 14 17" fill="none" xmlns="http://www.w3.org/2000/svg">
<path d="M12.4444 1.54545V15.4545H7.77778V12.75H6.22222V15.4545H1.55556V1.54545H12.4444ZM9.33333 4.63636H10.8889V3.09091H9.33333V4.63636ZM6.22222 4.63636H7.77778V3.09091H6.22222V4.63636ZM3.11111 4.63636H4.66667V3.09091H3.11111V4.63636ZM9.33333 7.72727H10.8889V6.18182H9.33333V7.72727ZM6.22222 7.72727H7.77778V6.18182H6.22222V7.72727ZM3.11111 7.72727H4.66667V6.18182H3.11111V7.72727ZM9.33333 10.8182H10.8889V9.27273H9.33333V10.8182ZM6.22222 10.8182H7.77778V9.27273H6.22222V10.8182ZM3.11111 10.8182H4.66667V9.27273H3.11111V10.8182ZM9.33333 13.9091H10.8889V12.3636H9.33333V13.9091ZM3.11111 13.9091H4.66667V12.3636H3.11111V13.9091ZM14 0H0V17H14V0Z" fill="#999999"/>
</svg>
