<svg width="337" height="250" viewBox="0 0 337 250" fill="none" xmlns="http://www.w3.org/2000/svg">
<path d="M286.966 238.889C287.483 239.255 288.099 239.449 288.731 239.447V239.438C289.326 239.439 289.909 239.265 290.407 238.938C290.905 238.611 291.296 238.145 291.531 237.597L292.825 233.662C293.124 232.771 293.626 231.961 294.291 231.297C294.957 230.633 295.768 230.133 296.66 229.837L300.412 228.617C301.018 228.405 301.541 228.008 301.907 227.481C302.274 226.955 302.464 226.326 302.452 225.684C302.44 225.043 302.226 224.422 301.839 223.91C301.453 223.397 300.915 223.02 300.302 222.832L296.598 221.629C295.702 221.331 294.888 220.827 294.221 220.159C293.553 219.491 293.051 218.676 292.753 217.78L291.533 214.028C291.321 213.431 290.927 212.915 290.407 212.551C289.888 212.188 289.268 211.995 288.634 212C288 212.005 287.383 212.208 286.869 212.58C286.356 212.951 285.97 213.474 285.767 214.075L284.537 217.858C284.24 218.728 283.75 219.52 283.103 220.173C282.456 220.826 281.669 221.324 280.801 221.629L277.051 222.832C276.449 223.04 275.928 223.432 275.56 223.952C275.192 224.472 274.996 225.095 275 225.732C275.004 226.369 275.207 226.989 275.582 227.504C275.956 228.02 276.482 228.405 277.087 228.606L280.789 229.807C281.685 230.108 282.498 230.612 283.166 231.281C283.833 231.95 284.336 232.765 284.634 233.662L285.854 237.409C286.063 238.007 286.451 238.522 286.966 238.887V238.889ZM303.147 249.544C302.745 249.257 302.442 248.851 302.282 248.383L301.59 246.259C301.457 245.854 301.231 245.486 300.93 245.185C300.629 244.883 300.261 244.656 299.857 244.522L297.766 243.84C297.287 243.678 296.87 243.371 296.575 242.961C296.279 242.551 296.119 242.059 296.117 241.554C296.118 241.051 296.275 240.562 296.566 240.153C296.858 239.745 297.27 239.437 297.744 239.274L299.868 238.585C300.263 238.445 300.62 238.216 300.913 237.916C301.205 237.616 301.425 237.253 301.556 236.854L302.24 234.762C302.401 234.289 302.705 233.877 303.11 233.584C303.514 233.291 304 233.131 304.5 233.126C305 233.121 305.489 233.271 305.9 233.557C306.31 233.842 306.622 234.248 306.792 234.718L307.486 236.858C307.622 237.26 307.849 237.624 308.15 237.923C308.45 238.222 308.815 238.447 309.217 238.581L311.311 239.263C311.793 239.414 312.216 239.713 312.519 240.118C312.822 240.523 312.991 241.013 313 241.519C313.009 242.024 312.858 242.52 312.57 242.936C312.282 243.351 311.87 243.665 311.393 243.834L309.253 244.528C308.851 244.664 308.485 244.892 308.186 245.193C307.886 245.494 307.66 245.86 307.527 246.264L306.847 248.352C306.682 248.837 306.37 249.259 305.95 249.555C305.54 249.846 305.05 250.002 304.547 250C304.044 249.998 303.555 249.839 303.147 249.544Z" fill="white"/>
<path d="M274.558 16.9827C274.884 17.2134 275.273 17.3361 275.672 17.3348V17.3294C276.048 17.3301 276.416 17.2202 276.731 17.0136C277.045 16.8069 277.292 16.5124 277.441 16.1667L278.258 13.6814C278.447 13.1184 278.764 12.607 279.184 12.1877C279.604 11.7684 280.116 11.4526 280.68 11.2653L283.05 10.4946C283.432 10.3611 283.763 10.1102 283.994 9.77765C284.225 9.44509 284.346 9.04792 284.338 8.64282C284.331 8.23772 284.195 7.84541 283.951 7.52188C283.707 7.19834 283.368 6.96013 282.98 6.84124L280.641 6.08123C280.075 5.89297 279.561 5.57522 279.139 5.15325C278.718 4.73128 278.4 4.21673 278.212 3.65052L277.442 1.28115C277.308 0.903773 277.059 0.577635 276.731 0.348051C276.403 0.118466 276.011 -0.00316322 275.611 6.25423e-05C275.21 0.00328831 274.821 0.131209 274.496 0.366051C274.172 0.600892 273.929 0.930991 273.8 1.31048L273.023 3.69985C272.836 4.24955 272.526 4.74951 272.118 5.16202C271.709 5.57454 271.212 5.88884 270.664 6.08123L268.295 6.84124C267.915 6.97283 267.586 7.22026 267.353 7.54876C267.121 7.87727 266.998 8.27033 267 8.67273C267.003 9.07513 267.131 9.46663 267.367 9.79222C267.604 10.1178 267.936 10.3611 268.318 10.488L270.656 11.2467C271.222 11.4363 271.736 11.755 272.157 12.1776C272.579 12.6001 272.896 13.115 273.085 13.6814L273.855 16.0481C273.987 16.4254 274.232 16.7507 274.558 16.9814V16.9827ZM284.777 23.7122C284.523 23.5308 284.332 23.2743 284.231 22.9789L283.794 21.6375C283.71 21.3818 283.567 21.1493 283.377 20.9587C283.187 20.7682 282.955 20.6248 282.699 20.5401L281.378 20.1095C281.076 20.0074 280.813 19.8134 280.626 19.5544C280.44 19.2955 280.339 18.9847 280.337 18.6654C280.337 18.3483 280.437 18.0391 280.621 17.781C280.805 17.5229 281.065 17.3286 281.365 17.2254L282.706 16.7907C282.955 16.7021 283.181 16.5574 283.366 16.3679C283.551 16.1784 283.69 15.949 283.772 15.6974L284.204 14.376C284.306 14.0771 284.498 13.817 284.753 13.6319C285.009 13.4467 285.316 13.3457 285.632 13.3426C285.947 13.3395 286.256 13.4346 286.516 13.6147C286.775 13.7948 286.972 14.0511 287.079 14.348L287.518 15.7001C287.604 15.9535 287.747 16.1836 287.937 16.3724C288.126 16.5612 288.357 16.7034 288.611 16.7881L289.933 17.2188C290.238 17.3141 290.505 17.503 290.696 17.7587C290.888 18.0144 290.994 18.3239 291 18.6434C291.006 18.9628 290.911 19.2759 290.728 19.5383C290.546 19.8008 290.286 19.9992 289.985 20.1055L288.633 20.5441C288.379 20.63 288.149 20.7736 287.959 20.9638C287.77 21.154 287.628 21.3855 287.543 21.6402L287.114 22.9589C287.01 23.2655 286.813 23.5322 286.547 23.7189C286.289 23.9029 285.979 24.0012 285.661 24C285.344 23.9988 285.035 23.8982 284.777 23.7122Z" fill="#499EB0"/>
<path d="M25.0767 127.644C25.5122 127.951 26.0311 128.115 26.5625 128.113V128.106C27.0642 128.107 27.555 127.96 27.9743 127.685C28.3935 127.409 28.7226 127.017 28.9209 126.556L30.0104 123.242C30.2621 122.491 30.6849 121.809 31.2454 121.25C31.8058 120.691 32.4886 120.27 33.2397 120.02L36.3996 118.993C36.9096 118.815 37.3502 118.48 37.6587 118.037C37.9672 117.593 38.1278 117.064 38.1176 116.524C38.1073 115.984 37.9268 115.461 37.6017 115.029C37.2765 114.598 36.8235 114.28 36.3072 114.122L33.1881 113.108C32.4336 112.857 31.7479 112.434 31.1858 111.871C30.6237 111.308 30.2005 110.622 29.95 109.867L28.9227 106.708C28.7436 106.205 28.4122 105.77 27.9746 105.464C27.537 105.158 27.015 104.996 26.4811 105C25.9471 105.004 25.4278 105.175 24.9952 105.488C24.5626 105.801 24.2383 106.241 24.0672 106.747L23.0311 109.933C22.7812 110.666 22.3683 111.333 21.8234 111.883C21.2784 112.433 20.6158 112.852 19.8854 113.108L16.7272 114.122C16.2203 114.297 15.7811 114.627 15.4713 115.065C15.1615 115.503 14.9967 116.027 15 116.564C15.0034 117.1 15.1747 117.622 15.4899 118.056C15.8051 118.49 16.2483 118.815 16.7574 118.984L19.8747 119.996C20.6291 120.248 21.3144 120.673 21.8764 121.237C22.4384 121.8 22.8617 122.487 23.1129 123.242L24.1401 126.397C24.3161 126.901 24.6431 127.334 25.0767 127.642V127.644ZM38.703 136.616C38.3641 136.374 38.1093 136.032 37.9743 135.638L37.3914 133.85C37.2793 133.509 37.089 133.199 36.8356 132.945C36.5822 132.691 36.2728 132.5 35.9322 132.387L34.171 131.813C33.7678 131.677 33.4172 131.418 33.1683 131.073C32.9194 130.727 32.7847 130.313 32.7829 129.887C32.7832 129.464 32.9154 129.052 33.161 128.708C33.4066 128.364 33.7535 128.105 34.1532 127.967L35.9411 127.388C36.2737 127.269 36.5747 127.077 36.8212 126.824C37.0677 126.571 37.253 126.265 37.3629 125.93L37.9388 124.168C38.0742 123.769 38.3302 123.423 38.6712 123.176C39.0122 122.929 39.4214 122.794 39.8423 122.79C40.2632 122.786 40.675 122.913 41.0207 123.153C41.3665 123.393 41.6291 123.735 41.7723 124.131L42.357 125.933C42.4715 126.271 42.6627 126.578 42.9155 126.83C43.1683 127.082 43.476 127.271 43.8144 127.384L45.5774 127.958C45.9838 128.085 46.3399 128.337 46.5952 128.678C46.8505 129.019 46.992 129.432 46.9997 129.858C47.0073 130.284 46.8808 130.701 46.6379 131.051C46.3951 131.401 46.0483 131.666 45.6467 131.807L43.8446 132.392C43.5057 132.507 43.198 132.698 42.9458 132.952C42.6935 133.205 42.5035 133.514 42.3908 133.854L41.8185 135.612C41.6799 136.021 41.4169 136.376 41.0632 136.625C40.7182 136.87 40.305 137.002 39.8816 137C39.4583 136.998 39.0461 136.864 38.703 136.616Z" fill="white"/>
<path d="M75.7789 207.117C75.7833 207.723 75.599 208.315 75.2515 208.811C74.904 209.308 74.4106 209.684 73.8397 209.887L64.1993 213.433L60.6534 223.073C60.4435 223.639 60.0656 224.127 59.5704 224.471C59.0751 224.815 58.4864 225 57.8832 225C57.28 225 56.6912 224.815 56.196 224.471C55.7008 224.127 55.3229 223.639 55.113 223.073L51.5671 213.433L41.9266 209.887C41.3611 209.677 40.8734 209.299 40.529 208.804C40.1846 208.309 40 207.72 40 207.117C40 206.514 40.1846 205.925 40.529 205.43C40.8734 204.934 41.3611 204.556 41.9266 204.347L51.5671 200.801L55.113 191.16C55.3229 190.595 55.7008 190.107 56.196 189.763C56.6912 189.418 57.28 189.234 57.8832 189.234C58.4864 189.234 59.0751 189.418 59.5704 189.763C60.0656 190.107 60.4435 190.595 60.6534 191.16L64.1993 200.801L73.8397 204.347C74.4106 204.55 74.904 204.926 75.2515 205.422C75.599 205.919 75.7833 206.511 75.7789 207.117ZM65.2705 189.387H68.2254V192.342C68.2254 192.734 68.3811 193.11 68.6581 193.387C68.9352 193.664 69.311 193.82 69.7029 193.82C70.0947 193.82 70.4705 193.664 70.7476 193.387C71.0247 193.11 71.1803 192.734 71.1803 192.342V189.387H74.1352C74.5271 189.387 74.9029 189.232 75.18 188.955C75.457 188.677 75.6127 188.302 75.6127 187.91C75.6127 187.518 75.457 187.142 75.18 186.865C74.9029 186.588 74.5271 186.432 74.1352 186.432H71.1803V183.477C71.1803 183.086 71.0247 182.71 70.7476 182.433C70.4705 182.156 70.0947 182 69.7029 182C69.311 182 68.9352 182.156 68.6581 182.433C68.3811 182.71 68.2254 183.086 68.2254 183.477V186.432H65.2705C64.8786 186.432 64.5028 186.588 64.2258 186.865C63.9487 187.142 63.793 187.518 63.793 187.91C63.793 188.302 63.9487 188.677 64.2258 188.955C64.5028 189.232 64.8786 189.387 65.2705 189.387ZM81.5225 195.297H80.0451V193.82C80.0451 193.428 79.8894 193.052 79.6123 192.775C79.3353 192.498 78.9595 192.342 78.5676 192.342C78.1758 192.342 77.8 192.498 77.5229 192.775C77.2458 193.052 77.0901 193.428 77.0901 193.82V195.297H75.6127C75.2208 195.297 74.845 195.453 74.568 195.73C74.2909 196.007 74.1352 196.383 74.1352 196.775C74.1352 197.166 74.2909 197.542 74.568 197.819C74.845 198.096 75.2208 198.252 75.6127 198.252H77.0901V199.73C77.0901 200.121 77.2458 200.497 77.5229 200.774C77.8 201.051 78.1758 201.207 78.5676 201.207C78.9595 201.207 79.3353 201.051 79.6123 200.774C79.8894 200.497 80.0451 200.121 80.0451 199.73V198.252H81.5225C81.9144 198.252 82.2902 198.096 82.5672 197.819C82.8443 197.542 83 197.166 83 196.775C83 196.383 82.8443 196.007 82.5672 195.73C82.2902 195.453 81.9144 195.297 81.5225 195.297Z" fill="white"/>
<path d="M324.31 180.265L326.95 181.591L325.624 184.231C325.448 184.582 325.418 184.987 325.542 185.359C325.665 185.731 325.931 186.039 326.281 186.215C326.631 186.391 327.037 186.42 327.409 186.297C327.781 186.174 328.089 185.908 328.264 185.558L329.591 182.917L332.231 184.243C332.581 184.419 332.987 184.449 333.359 184.326C333.731 184.202 334.039 183.936 334.215 183.586C334.391 183.236 334.42 182.83 334.297 182.458C334.174 182.087 333.908 181.779 333.558 181.603L330.917 180.277L332.243 177.636C332.419 177.286 332.449 176.88 332.326 176.508C332.202 176.136 331.936 175.828 331.586 175.653C331.236 175.477 330.83 175.447 330.458 175.57C330.086 175.694 329.779 175.96 329.603 176.31L328.277 178.95L325.636 177.624C325.286 177.448 324.88 177.419 324.508 177.542C324.136 177.665 323.828 177.931 323.653 178.281C323.477 178.631 323.447 179.037 323.57 179.409C323.694 179.781 323.96 180.089 324.31 180.265Z" fill="white"/>
<path d="M298.295 116.111L301.344 114.612L302.843 117.661C303.042 118.065 303.393 118.374 303.82 118.519C304.246 118.664 304.713 118.634 305.117 118.435C305.521 118.237 305.83 117.885 305.975 117.459C306.121 117.032 306.091 116.566 305.892 116.161L304.393 113.112L307.442 111.613C307.846 111.415 308.155 111.063 308.3 110.637C308.446 110.21 308.416 109.744 308.217 109.339C308.018 108.935 307.667 108.626 307.24 108.481C306.814 108.336 306.347 108.366 305.943 108.564L302.894 110.063L301.395 107.014C301.196 106.61 300.845 106.301 300.418 106.156C299.992 106.011 299.525 106.041 299.121 106.24C298.716 106.438 298.407 106.79 298.262 107.216C298.117 107.643 298.147 108.109 298.346 108.514L299.845 111.563L296.796 113.062C296.391 113.26 296.083 113.612 295.937 114.038C295.792 114.465 295.822 114.931 296.021 115.336C296.22 115.74 296.571 116.049 296.997 116.194C297.424 116.339 297.891 116.309 298.295 116.111Z" fill="white"/>
<path d="M253.303 186.521L256.664 186.025L257.16 189.386C257.226 189.832 257.466 190.233 257.828 190.502C258.189 190.77 258.643 190.884 259.089 190.818C259.534 190.753 259.936 190.512 260.204 190.151C260.473 189.789 260.587 189.335 260.521 188.89L260.025 185.529L263.386 185.032C263.832 184.967 264.233 184.726 264.502 184.365C264.77 184.003 264.884 183.549 264.818 183.104C264.753 182.658 264.512 182.257 264.151 181.988C263.789 181.719 263.335 181.605 262.89 181.671L259.529 182.167L259.032 178.806C258.967 178.361 258.726 177.959 258.365 177.691C258.003 177.422 257.549 177.308 257.104 177.374C256.658 177.44 256.257 177.68 255.988 178.042C255.719 178.403 255.605 178.857 255.671 179.303L256.167 182.664L252.806 183.16C252.361 183.226 251.959 183.466 251.691 183.828C251.422 184.189 251.308 184.643 251.374 185.089C251.44 185.534 251.68 185.936 252.042 186.204C252.403 186.473 252.857 186.587 253.303 186.521Z" fill="white"/>
<path d="M43.9212 162.14L47.2823 161.643L47.7786 165.005C47.8444 165.45 48.0845 165.852 48.4462 166.12C48.8079 166.389 49.2615 166.503 49.7072 166.437C50.153 166.371 50.5543 166.131 50.8229 165.769C51.0916 165.408 51.2055 164.954 51.1397 164.508L50.6435 161.147L54.0046 160.651C54.4503 160.585 54.8516 160.345 55.1203 159.983C55.3889 159.622 55.5029 159.168 55.437 158.722C55.3712 158.277 55.1311 157.875 54.7694 157.607C54.4077 157.338 53.9541 157.224 53.5084 157.29L50.1472 157.786L49.651 154.425C49.5852 153.979 49.345 153.578 48.9833 153.309C48.6216 153.041 48.168 152.927 47.7223 152.992C47.2766 153.058 46.8752 153.298 46.6066 153.66C46.338 154.022 46.224 154.475 46.2898 154.921L46.7861 158.282L43.4249 158.779C42.9792 158.844 42.5779 159.085 42.3092 159.446C42.0406 159.808 41.9267 160.262 41.9925 160.707C42.0583 161.153 42.2984 161.554 42.6601 161.823C43.0218 162.092 43.4754 162.206 43.9212 162.14Z" fill="white"/>
<path d="M33.0721 69.1631L35.9888 70.9055L34.2463 73.8223C34.0153 74.2091 33.9473 74.6718 34.0574 75.1087C34.1675 75.5456 34.4467 75.9208 34.8334 76.1519C35.2202 76.3829 35.683 76.4509 36.1198 76.3408C36.5567 76.2307 36.932 75.9515 37.1631 75.5648L38.9055 72.648L41.8223 74.3905C42.209 74.6216 42.6718 74.6895 43.1087 74.5794C43.5455 74.4693 43.9208 74.1902 44.1519 73.8034C44.3829 73.4166 44.4509 72.9539 44.3408 72.517C44.2307 72.0801 43.9515 71.7048 43.5647 71.4738L40.648 69.7313L42.3905 66.8146C42.6215 66.4278 42.6895 65.965 42.5794 65.5282C42.4693 65.0913 42.1901 64.716 41.8034 64.485C41.4166 64.2539 40.9538 64.1859 40.517 64.296C40.0801 64.4061 39.7048 64.6853 39.4738 65.0721L37.7313 67.9888L34.8145 66.2463C34.4278 66.0153 33.965 65.9473 33.5281 66.0574C33.0913 66.1675 32.716 66.4467 32.4849 66.8335C32.2539 67.2202 32.1859 67.683 32.296 68.1199C32.4061 68.5567 32.6853 68.932 33.0721 69.1631Z" fill="#499EB0"/>
<path d="M46.6086 37.9516C46.4006 38.2869 46.0933 38.5491 45.7295 38.7018C45.3657 38.8546 44.9633 38.8902 44.5783 38.8039L38.0368 37.4086L32.7354 41.4869C32.4233 41.7255 32.0458 41.8629 31.6534 41.8806C31.261 41.8983 30.8726 41.7955 30.5404 41.5859C30.2081 41.3764 29.948 41.0703 29.7948 40.7086C29.6417 40.3469 29.6029 39.947 29.6837 39.5626L31.079 33.0211L27.0007 27.7196C26.7621 27.4076 26.6248 27.03 26.6071 26.6376C26.5894 26.2453 26.6922 25.8569 26.9017 25.5246C27.1112 25.1924 27.4174 24.9322 27.7791 24.7791C28.1408 24.6259 28.5407 24.5872 28.925 24.668L35.4665 26.0633L40.768 21.9849C41.08 21.7464 41.4576 21.609 41.85 21.5913C42.2424 21.5736 42.6308 21.6764 42.963 21.8859C43.2952 22.0954 43.5554 22.4016 43.7085 22.7633C43.8617 23.125 43.9005 23.5249 43.8197 23.9093L42.4244 30.4508L46.5027 35.7522C46.7465 36.0625 46.8877 36.4409 46.9067 36.835C46.9257 37.2291 46.8215 37.6194 46.6086 37.9516ZM46.9785 24.5364L48.6061 25.5627L47.5797 27.1903C47.4436 27.4061 47.3989 27.6671 47.4552 27.916C47.5116 28.1648 47.6645 28.3811 47.8804 28.5172C48.0962 28.6533 48.3572 28.6981 48.6061 28.6417C48.8549 28.5853 49.0712 28.4324 49.2073 28.2166L50.2336 26.589L51.8612 27.6154C52.077 27.7515 52.3381 27.7962 52.5869 27.7399C52.8358 27.6835 53.052 27.5306 53.1881 27.3147C53.3242 27.0989 53.369 26.8379 53.3126 26.589C53.2563 26.3402 53.1033 26.1239 52.8875 25.9878L51.26 24.9615L52.2863 23.3339C52.4224 23.1181 52.4672 22.857 52.4108 22.6082C52.3544 22.3593 52.2015 22.1431 51.9857 22.007C51.7698 21.8709 51.5088 21.8261 51.2599 21.8825C51.0111 21.9388 50.7948 22.0918 50.6587 22.3076L49.6324 23.9352L48.0048 22.9088C47.789 22.7727 47.528 22.7279 47.2791 22.7843C47.0303 22.8407 46.814 22.9936 46.6779 23.2094C46.5418 23.4253 46.497 23.6863 46.5534 23.9352C46.6098 24.184 46.7627 24.4003 46.9785 24.5364ZM53.8774 33.4363L53.0637 32.9231L53.5768 32.1093C53.7129 31.8935 53.7577 31.6325 53.7013 31.3836C53.645 31.1348 53.492 30.9185 53.2762 30.7824C53.0604 30.6463 52.7993 30.6015 52.5505 30.6579C52.3016 30.7143 52.0854 30.8672 51.9493 31.083L51.4361 31.8968L50.6223 31.3836C50.4065 31.2475 50.1454 31.2027 49.8966 31.2591C49.6477 31.3155 49.4315 31.4684 49.2954 31.6843C49.1593 31.9001 49.1145 32.1611 49.1709 32.41C49.2272 32.6588 49.3802 32.8751 49.596 33.0112L50.4098 33.5244L49.8966 34.3381C49.7605 34.554 49.7157 34.815 49.7721 35.0639C49.8285 35.3127 49.9814 35.529 50.1972 35.6651C50.4131 35.8012 50.6741 35.846 50.923 35.7896C51.1718 35.7332 51.3881 35.5803 51.5242 35.3645L52.0373 34.5507L52.8511 35.0638C53.0669 35.1999 53.328 35.2447 53.5768 35.1883C53.8257 35.132 54.042 34.979 54.1781 34.7632C54.3142 34.5474 54.3589 34.2863 54.3026 34.0375C54.2462 33.7886 54.0933 33.5724 53.8774 33.4363Z" fill="#499EB0"/>
<path d="M280.206 156.107C280.203 156.544 280.336 156.971 280.586 157.329C280.837 157.687 281.192 157.958 281.604 158.105L288.554 160.661L291.11 167.611C291.262 168.019 291.534 168.37 291.891 168.619C292.248 168.867 292.673 169 293.107 169C293.542 169 293.967 168.867 294.324 168.619C294.681 168.37 294.953 168.019 295.105 167.611L297.661 160.661L304.611 158.105C305.019 157.953 305.37 157.681 305.619 157.324C305.867 156.967 306 156.542 306 156.107C306 155.673 305.867 155.248 305.619 154.891C305.37 154.534 305.019 154.262 304.611 154.11L297.661 151.554L295.105 144.604C294.953 144.196 294.681 143.845 294.324 143.596C293.967 143.348 293.542 143.215 293.107 143.215C292.673 143.215 292.248 143.348 291.891 143.596C291.534 143.845 291.262 144.196 291.11 144.604L288.554 151.554L281.604 154.11C281.192 154.257 280.837 154.528 280.586 154.886C280.336 155.244 280.203 155.671 280.206 156.107ZM287.782 143.326H285.651V145.456C285.651 145.739 285.539 146.009 285.339 146.209C285.14 146.409 284.869 146.521 284.586 146.521C284.304 146.521 284.033 146.409 283.833 146.209C283.633 146.009 283.521 145.739 283.521 145.456V143.326H281.391C281.108 143.326 280.837 143.214 280.638 143.014C280.438 142.814 280.326 142.543 280.326 142.261C280.326 141.978 280.438 141.707 280.638 141.507C280.837 141.308 281.108 141.195 281.391 141.195H283.521V139.065C283.521 138.783 283.633 138.512 283.833 138.312C284.033 138.112 284.304 138 284.586 138C284.869 138 285.14 138.112 285.339 138.312C285.539 138.512 285.651 138.783 285.651 139.065V141.195H287.782C288.064 141.195 288.335 141.308 288.535 141.507C288.735 141.707 288.847 141.978 288.847 142.261C288.847 142.543 288.735 142.814 288.535 143.014C288.335 143.214 288.064 143.326 287.782 143.326ZM276.065 147.586H277.13V146.521C277.13 146.239 277.243 145.968 277.442 145.768C277.642 145.568 277.913 145.456 278.195 145.456C278.478 145.456 278.749 145.568 278.949 145.768C279.148 145.968 279.261 146.239 279.261 146.521V147.586H280.326C280.608 147.586 280.879 147.699 281.079 147.898C281.279 148.098 281.391 148.369 281.391 148.651C281.391 148.934 281.279 149.205 281.079 149.405C280.879 149.604 280.608 149.717 280.326 149.717H279.261V150.782C279.261 151.064 279.148 151.335 278.949 151.535C278.749 151.735 278.478 151.847 278.195 151.847C277.913 151.847 277.642 151.735 277.442 151.535C277.243 151.335 277.13 151.064 277.13 150.782V149.717H276.065C275.783 149.717 275.512 149.604 275.312 149.405C275.112 149.205 275 148.934 275 148.651C275 148.369 275.112 148.098 275.312 147.898C275.512 147.699 275.783 147.586 276.065 147.586Z" fill="white"/>
<path d="M299.937 68.1732C299.868 68.4158 299.875 68.674 299.959 68.9121C300.043 69.1502 300.198 69.3563 300.405 69.5019L303.874 72.0053L304.215 76.2698C304.236 76.5202 304.333 76.7582 304.493 76.9519C304.653 77.1456 304.868 77.2856 305.11 77.3533C305.352 77.4209 305.609 77.4129 305.846 77.3303C306.083 77.2477 306.29 77.0944 306.437 76.8912L308.941 73.4219L313.205 73.0807C313.456 73.06 313.694 72.9631 313.887 72.803C314.081 72.643 314.221 72.4276 314.289 72.1856C314.356 71.9437 314.348 71.6868 314.266 71.4496C314.183 71.2123 314.03 71.006 313.827 70.8584L310.357 68.355L310.016 64.0904C309.995 63.84 309.899 63.602 309.739 63.4083C309.579 63.2147 309.363 63.0746 309.121 63.0069C308.879 62.9393 308.622 62.9473 308.385 63.0299C308.148 63.1125 307.942 63.2658 307.794 63.4691L305.29 66.9383L301.026 67.2795C300.774 67.297 300.534 67.3925 300.339 67.5526C300.144 67.7128 300.004 67.9297 299.937 68.1732Z" fill="#499EB0"/>
<path d="M2.00554 158.173C1.93581 158.416 1.94333 158.674 2.02704 158.912C2.11075 159.15 2.26651 159.356 2.47269 159.502L5.94193 162.005L6.28311 166.27C6.30389 166.52 6.40079 166.758 6.5608 166.952C6.72082 167.146 6.93627 167.286 7.17822 167.353C7.42018 167.421 7.67704 167.413 7.91429 167.33C8.15155 167.248 8.35785 167.094 8.50546 166.891L11.0089 163.422L15.2734 163.081C15.5238 163.06 15.7618 162.963 15.9555 162.803C16.1492 162.643 16.2893 162.428 16.3569 162.186C16.4246 161.944 16.4165 161.687 16.3339 161.45C16.2513 161.212 16.0981 161.006 15.8948 160.858L12.4255 158.355L12.0843 154.09C12.0636 153.84 11.9667 153.602 11.8067 153.408C11.6466 153.215 11.4312 153.075 11.1892 153.007C10.9473 152.939 10.6904 152.947 10.4532 153.03C10.2159 153.113 10.0096 153.266 9.862 153.469L7.35857 156.938L3.09403 157.28C2.84226 157.297 2.60218 157.392 2.40713 157.553C2.21208 157.713 2.07172 157.93 2.00554 158.173Z" fill="white"/>
</svg>
