<svg width="23" height="18" viewBox="0 0 23 18" fill="none" xmlns="http://www.w3.org/2000/svg">
<path d="M21.7117 2.5627C21.3775 2.71092 21.0339 2.83601 20.6829 2.93757C21.0985 2.46752 21.4154 1.91444 21.6088 1.30921C21.6522 1.17354 21.6073 1.02505 21.4957 0.936323C21.3844 0.847528 21.2296 0.836892 21.107 0.909561C20.3615 1.35175 19.5571 1.66953 18.7137 1.85536C17.8641 1.02519 16.7102 0.552734 15.5173 0.552734C12.9992 0.552734 10.9506 2.60126 10.9506 5.11922C10.9506 5.31754 10.9632 5.51475 10.988 5.70922C7.86339 5.43488 4.95848 3.89908 2.96368 1.45214C2.89259 1.36493 2.78308 1.31792 2.67095 1.32691C2.55875 1.33569 2.45795 1.39896 2.40127 1.4962C1.99668 2.19043 1.78279 2.98444 1.78279 3.79231C1.78279 4.89264 2.17565 5.93663 2.86961 6.75239C2.6586 6.67931 2.45383 6.58798 2.2584 6.47949C2.15348 6.42109 2.02544 6.42198 1.9212 6.48175C1.8169 6.54152 1.7515 6.65145 1.74876 6.7716C1.74828 6.79185 1.74828 6.81209 1.74828 6.83261C1.74828 8.47504 2.63225 9.95374 3.98373 10.7597C3.86762 10.7481 3.75159 10.7313 3.6363 10.7093C3.51745 10.6865 3.39524 10.7282 3.31509 10.8188C3.2348 10.9094 3.20825 11.0357 3.24523 11.151C3.74548 12.7128 5.03342 13.8615 6.59042 14.2118C5.29905 15.0206 3.82226 15.4443 2.27199 15.4443C1.94851 15.4443 1.62318 15.4253 1.30478 15.3876C1.14661 15.3688 0.995374 15.4622 0.941507 15.6126C0.88764 15.7631 0.944732 15.9309 1.0793 16.0171C3.07087 17.2941 5.3737 17.969 7.73871 17.969C12.388 17.969 15.2965 15.7766 16.9177 13.9374C18.9392 11.644 20.0986 8.60844 20.0986 5.6091C20.0986 5.4838 20.0967 5.35727 20.0929 5.23114C20.8904 4.63023 21.5771 3.90299 22.1359 3.06713C22.2208 2.94018 22.2116 2.7724 22.1133 2.65554C22.0151 2.53861 21.8514 2.5008 21.7117 2.5627Z" fill="white"/>
</svg>
